PathFileType	4	(X/Y/Z)	D:\TRACE\v60_Jaco2_6-2-23\BothDRS_Motion1_3-v60.trc
DataRate	CameraRate	NumFrames	NumMarkers	Units	OrigDataRate	OrigDataStartFrame	OrigNumFrames
100.00	100.00	      24	9	mm	100.00	2653	      7073
Frame#	Time	front left toe			Front right toe			aft left toe			aft right toe			Arm			FL body			FR body			AL Body			AR Body			
		X1	Y1	Z1	X2	Y2	Z2	X3	Y3	Z3	X4	Y4	Z4	X5	Y5	Z5	X6	Y6	Z6	X7	Y7	Z7	X8	Y8	Z8	X9	Y9	Z9	

2653	26.520	-203.71545	4.11013	-313.85724	150.42741	6.62617	-332.18399	-145.42877	27.14510	338.72742	255.69531	23.87914	253.37825	-3.25233	1095.19055	-670.55481	-118.54247	559.56757	-447.41824	39.88767	552.41479	-468.46906	9.11080	563.23468	489.76532	164.01236	551.18353	469.56866	
2654	26.530	-204.37126	3.91554	-313.78607	150.20108	3.60454	-331.69305	-146.20367	24.70989	339.22910	254.98967	24.08957	253.16905	-4.66509	1094.72717	-669.91705	-120.27029	559.74695	-446.48322	38.31293	552.55981	-468.14929	7.98704	563.99866	490.22754	162.42177	551.49915	470.51648	
2655	26.540	-204.93616	4.16314	-313.74979	149.95271	3.50523	-331.86789	-147.08636	25.32058	339.62177	254.16280	24.63521	253.33580	-5.88030	1094.50891	-669.75708	-121.41828	559.51746	-445.02420	36.42132	552.74390	-467.43561	7.16734	565.54535	492.18210	161.97667	553.20117	471.32596	
2656	26.550	-205.57309	7.16616	-313.54410	148.37645	3.16341	-331.42389	-147.51414	24.86746	340.68365	252.95717	27.55436	253.85411	-7.63827	1094.53491	-670.10870	-123.59171	560.25885	-444.25354	35.77677	553.59100	-466.54251	6.25763	567.11285	492.39645	160.45219	554.47064	472.08331	
2657	26.560	-202.85469	11.14292	-312.08533	148.10033	3.83623	-331.56909	-148.13371	23.87061	339.96423	248.91357	30.53264	256.92899	-9.75434	1094.77686	-669.95959	-124.81166	560.87933	-443.55463	33.77090	554.24054	-465.53369	5.33952	567.83521	493.12378	160.13455	555.17566	472.74103	
2658	26.570	-200.88640	14.84174	-307.95950	146.38336	3.51007	-331.57666	-148.43964	24.67175	339.41034	244.24930	35.43679	261.02167	-12.28934	1094.69885	-669.44952	-126.08472	561.32849	-442.82999	32.88643	554.86517	-465.48434	4.17447	568.58337	493.65958	158.97003	556.09882	473.32718	
2659	26.580	-199.80479	24.43524	-306.32574	147.59142	3.37391	-331.83252	-148.52284	23.93294	340.07385	240.05908	44.79457	262.01978	-14.45282	1095.10876	-669.17853	-127.19894	561.09827	-442.35379	32.44303	555.43378	-465.40283	3.07525	569.31549	494.16751	157.94617	557.10168	473.88235	
2660	26.590	-199.87791	33.74511	-306.02850	147.53497	3.17406	-331.75046	-148.91675	24.38218	339.80954	237.01930	55.77101	262.83740	-17.25727	1095.60559	-669.27979	-128.14705	560.64886	-441.88757	31.15539	554.63226	-464.19003	1.97209	569.83582	494.77554	156.58249	557.96979	474.65518	
2661	26.600	-200.83797	45.77884	-304.94016	147.46149	3.07797	-331.52780	-149.58647	24.57589	339.88068	238.60622	68.83442	262.61661	-19.35327	1095.54041	-668.84674	-128.78236	560.10999	-441.38049	31.04105	554.55542	-463.61063	0.64560	570.17767	495.46140	155.34039	558.45544	475.26807	
2662	26.610	-202.56093	57.85731	-304.88428	147.18094	2.98778	-331.58429	-149.94720	24.11770	339.98019	239.96533	81.83823	263.49954	-21.54980	1095.05408	-669.11432	-129.56532	559.84717	-440.85254	29.35867	554.11633	-462.55353	-0.81701	570.01208	496.07446	153.76213	558.42365	475.95926	
2663	26.620	-204.45042	69.84789	-303.27405	147.08313	2.93062	-331.49509	-150.38649	23.92605	339.81738	241.42336	94.67410	264.71463	-23.10608	1094.10486	-669.16412	-130.19254	559.39514	-440.33105	29.44894	554.17114	-462.44205	-2.30914	569.79895	497.14133	152.05051	558.55078	476.61960	
2664	26.630	-206.59082	81.54951	-301.75168	146.93422	2.72675	-331.67078	-150.57350	23.59440	339.65485	241.55029	106.84497	267.05823	-24.54477	1093.24756	-669.61749	-130.61450	558.44745	-439.90015	28.14969	553.42822	-461.26151	-4.27295	569.63513	497.30014	150.57031	558.58417	477.29126	
2665	26.640	-208.07124	92.29887	-299.44144	146.87752	2.57059	-331.56812	-150.60472	23.52054	339.68634	240.79362	118.39449	269.78680	-25.48766	1092.56921	-669.84039	-130.53745	557.15167	-438.93491	27.56605	552.83881	-460.68802	-5.66374	569.74512	497.59619	149.08546	559.10638	478.07892	
2666	26.650	-209.48216	102.30722	-297.09845	146.75162	2.46846	-331.43851	-150.63350	23.41638	339.76224	239.43782	129.02292	272.68631	-27.09963	1091.85498	-670.02991	-131.73798	556.47498	-438.50891	27.43360	552.56055	-460.03439	-7.08018	569.74542	499.21094	147.60889	559.44189	478.63367	
2667	26.660	-211.13025	111.21227	-294.79025	146.75394	2.44294	-331.31345	-150.94582	23.32466	339.75787	237.39638	138.85175	275.53281	-28.52330	1091.20691	-670.53107	-132.66988	555.92072	-437.92932	26.82404	552.14081	-459.33487	-8.28813	569.93231	499.43771	146.34152	560.10522	479.75317	
2668	26.670	-212.62419	119.01663	-292.10599	146.58630	2.36833	-331.29498	-151.04576	23.30055	339.70767	234.46341	147.05693	278.58554	-30.64007	1090.44092	-671.17340	-133.41713	555.03168	-437.10870	26.14972	551.56458	-458.42474	-9.44476	570.30969	500.42667	144.96223	560.62067	480.55960	
2669	26.680	-214.65688	124.39086	-289.65506	146.71960	2.37612	-331.22092	-151.02106	23.39153	339.80142	231.89180	152.62141	282.20850	-32.43081	1089.33020	-671.39594	-134.08499	554.47076	-436.32236	26.09496	551.33759	-457.51193	-11.02940	570.78564	500.94479	143.38696	561.17249	481.44070	
2670	26.690	-217.13710	128.06334	-286.73621	146.71704	2.36356	-331.10721	-151.19701	23.42492	339.83606	228.57072	155.55659	285.47397	-34.31986	1088.28479	-672.38519	-134.42162	553.57928	-435.52768	24.69482	550.71600	-456.62302	-12.37172	571.18591	502.06323	142.19572	562.01056	482.82565	
2671	26.700	-219.89465	128.55341	-283.73276	146.52393	2.38541	-330.99710	-151.28249	23.38931	339.84177	226.77179	155.85361	289.44101	-36.40582	1087.11243	-672.95557	-134.69733	552.98676	-434.28952	23.91916	550.32086	-455.14142	-13.99216	571.64026	503.25903	140.39932	562.59229	484.16095	
2672	26.710	-222.85439	126.45007	-280.12317	146.45816	2.46635	-330.74042	-151.34911	23.43354	339.91669	224.89240	153.52484	293.31348	-37.74430	1086.34595	-673.50916	-135.66461	552.81915	-433.34341	23.22868	550.05341	-453.86224	-15.56283	571.97675	504.11444	138.44035	563.16455	485.22818	
2673	26.720	-225.44310	122.11424	-276.50266	146.37109	2.56252	-330.62805	-151.47467	23.33517	339.89023	222.71841	149.30159	297.17706	-39.08514	1085.79199	-674.23541	-136.30899	552.26892	-432.50342	22.32169	549.64160	-452.28864	-17.29497	572.18207	505.07535	136.02336	563.50604	485.69891	
2674	26.730	-227.41463	116.49732	-273.14066	146.34570	2.60984	-330.49423	-151.55090	23.20303	339.87869	220.73553	144.43817	301.20349	-39.88354	1085.48267	-674.50055	-137.16148	552.01233	-431.73367	22.45378	549.64880	-451.84427	-19.04419	572.66992	506.24533	135.62466	564.24457	487.28595	
2675	26.740	-229.54967	110.67510	-270.00366	146.23294	2.65510	-330.41418	-151.64734	22.98450	339.92563	218.76738	138.65414	305.20816	-40.82476	1085.33789	-674.83386	-137.74695	551.55554	-430.68573	21.46107	549.27570	-450.55902	-20.24923	573.01007	507.90475	133.89601	564.71826	488.57330	
2676	26.750	-231.54509	103.59904	-267.33337	146.10486	2.75623	-330.25186	-151.73125	22.67878	340.16641	215.72034	131.28447	308.75903	-41.97182	1085.34888	-675.23529	-137.96944	550.72247	-429.51547	20.40128	549.05493	-449.49350	-22.03013	572.68140	508.35263	132.16805	564.19177	488.94589	
